<?xml version="1.0" encoding="utf-8"?>
<!-- Generator: Adobe Illustrator 22.1.0, SVG Export Plug-In . SVG Version: 6.00 Build 0)  -->
<svg version="1.1" id="Layer_2_1_" xmlns="http://www.w3.org/2000/svg" xmlns:xlink="http://www.w3.org/1999/xlink" x="0px" y="0px"
	 viewBox="0 0 96 96" style="enable-background:new 0 0 96 96;" xml:space="preserve">
<style type="text/css">
	.st0{fill:#61DAFB;}
	.st1{fill:url(#SVGID_1_);}
	.st2{fill:#40A459;}
	.st3{fill:#378B4E;}
	.st4{fill:#898790;}
	.st5{fill:#7A797F;}
	.st6{fill:#3D9AE3;}
	.st7{fill:#1D81CE;}
	.st8{fill:#FFFFFF;}
	.st9{fill:#E0E0E3;}
	.st10{fill:#FFCE00;}
	.st11{fill:#CD2900;}
	.st12{fill:#891D00;}
</style>
<g>
	<g>
		<path class="st0" d="M96,48c0-6.4-8-12.4-20.2-16.1c2.8-12.4,1.6-22.3-4-25.5c-1.3-0.7-2.8-1.1-4.4-1.1v4.4c0.9,0,1.6,0.2,2.2,0.5
			c2.7,1.5,3.8,7.3,2.9,14.8c-0.2,1.8-0.6,3.8-1,5.8c-3.8-0.9-8-1.7-12.4-2.1c-2.6-3.6-5.4-6.9-8.1-9.8c6.4-5.9,12.4-9.2,16.4-9.2
			V5.3l0,0c-5.4,0-12.4,3.8-19.5,10.5C40.8,9.1,33.8,5.3,28.4,5.3v4.4c4.1,0,10.1,3.2,16.4,9.1c-2.7,2.9-5.5,6.1-8.1,9.8
			c-4.4,0.5-8.6,1.2-12.4,2.2c-0.5-2-0.8-3.9-1-5.7c-0.9-7.5,0.2-13.3,2.9-14.8c0.6-0.4,1.4-0.5,2.3-0.5V5.4l0,0
			c-1.6,0-3.1,0.4-4.4,1.1c-5.5,3.2-6.7,13.1-3.9,25.5C7.9,35.7,0,41.7,0,48c0,6.4,8,12.4,20.2,16.1c-2.8,12.4-1.6,22.3,4,25.5
			c1.3,0.7,2.8,1.1,4.4,1.1c5.4,0,12.4-3.8,19.5-10.5c7.1,6.6,14.2,10.4,19.5,10.4c1.6,0,3.1-0.4,4.4-1.1c5.5-3.2,6.7-13.1,3.9-25.5
			C88.1,60.4,96,54.3,96,48z M70.5,35c-0.7,2.5-1.6,5.1-2.6,7.7c-0.8-1.6-1.6-3.1-2.6-4.7c-0.9-1.6-1.9-3.1-2.8-4.6
			C65.3,33.8,68,34.3,70.5,35z M61.6,55.8c-1.5,2.6-3.1,5.1-4.7,7.5c-2.9,0.3-5.9,0.4-8.8,0.4c-3,0-5.9-0.1-8.8-0.4
			c-1.6-2.3-3.2-4.8-4.7-7.4c-1.5-2.6-2.8-5.2-4.1-7.8c1.2-2.6,2.6-5.2,4.1-7.8c1.5-2.6,3.1-5.1,4.7-7.5c2.9-0.3,5.9-0.4,8.8-0.4
			c3,0,5.9,0.1,8.8,0.4c1.6,2.3,3.2,4.8,4.7,7.4c1.5,2.6,2.8,5.2,4.1,7.8C64.4,50.6,63,53.2,61.6,55.8z M67.9,53.3
			c1.1,2.6,2,5.2,2.7,7.8c-2.6,0.6-5.3,1.2-8.1,1.6c1-1.5,1.9-3.1,2.8-4.6C66.2,56.4,67.1,54.8,67.9,53.3z M48,74.1
			c-1.8-1.9-3.6-4-5.4-6.3c1.8,0.1,3.6,0.1,5.4,0.1c1.8,0,3.7,0,5.4-0.1C51.7,70.2,49.8,72.3,48,74.1z M33.5,62.6
			c-2.8-0.4-5.5-0.9-8-1.5c0.7-2.5,1.6-5.1,2.6-7.7c0.8,1.6,1.6,3.1,2.6,4.7C31.6,59.6,32.5,61.1,33.5,62.6z M47.9,21.9
			c1.8,1.9,3.6,4,5.4,6.3C51.6,28.1,49.8,28,48,28c-1.8,0-3.7,0-5.4,0.1C44.3,25.9,46.1,23.8,47.9,21.9z M33.5,33.4
			c-1,1.5-1.9,3.1-2.8,4.6c-0.9,1.6-1.7,3.1-2.5,4.7c-1.1-2.6-2-5.2-2.7-7.8C28,34.4,30.7,33.8,33.5,33.4z M15.8,57.9
			C8.8,55,4.3,51.1,4.3,48c0-3.1,4.5-7,11.4-9.9c1.7-0.7,3.5-1.4,5.4-2C22.3,40,23.8,44,25.6,48c-1.8,4.1-3.2,8-4.3,11.9
			C19.3,59.3,17.5,58.6,15.8,57.9z M26.3,85.9c-2.7-1.5-3.8-7.3-2.9-14.8c0.2-1.8,0.6-3.8,1-5.8c3.8,0.9,8,1.7,12.4,2.1
			c2.6,3.6,5.4,6.9,8.1,9.8c-6.4,5.9-12.4,9.2-16.4,9.2C27.6,86.4,26.9,86.2,26.3,85.9z M72.7,71c0.9,7.5-0.2,13.3-2.9,14.8
			c-0.6,0.4-1.4,0.5-2.3,0.5c-4.1,0-10.1-3.2-16.4-9.1c2.7-2.9,5.5-6.1,8.1-9.8c4.4-0.5,8.6-1.2,12.4-2.2
			C72.1,67.2,72.5,69.1,72.7,71z M80.2,57.9c-1.7,0.7-3.5,1.4-5.4,2c-1.1-3.8-2.6-7.8-4.4-11.9c1.8-4.1,3.2-8,4.3-11.9
			c1.9,0.6,3.8,1.3,5.5,2c6.9,3,11.4,6.8,11.4,9.9C91.6,51.1,87.2,55,80.2,57.9z"/>
		<path class="st0" d="M28.4,5.3L28.4,5.3L28.4,5.3z"/>
		<circle class="st0" cx="48" cy="48" r="8.9"/>
		<path class="st0" d="M67.5,5.3L67.5,5.3L67.5,5.3z"/>
	</g>
	<radialGradient id="SVGID_1_" cx="47.9775" cy="48.0098" r="29.8225" gradientUnits="userSpaceOnUse">
		<stop  offset="0.55" style="stop-color:#FFFFFF"/>
		<stop  offset="1" style="stop-color:#FFFFFF;stop-opacity:0"/>
	</radialGradient>
	<circle class="st1" cx="48" cy="48" r="29.8"/>
	<g>
		<circle class="st2" cx="48" cy="48" r="20.6"/>
		<path class="st3" d="M48,27.4c-0.2,0-0.3,0-0.5,0c0,0-0.1,0-0.1,0c-0.1,0-0.3,0-0.4,0c0,0-0.1,0-0.1,0c-0.1,0-0.2,0-0.3,0
			c-0.1,0-0.1,0-0.2,0c-0.1,0-0.3,0-0.4,0c-0.1,0-0.1,0-0.2,0c-0.1,0-0.2,0-0.2,0c-0.1,0-0.1,0-0.2,0c10.1,1.3,18,10,18,20.5
			s-7.8,19.1-18,20.5c0.1,0,0.1,0,0.2,0c0.1,0,0.2,0,0.2,0c0.1,0,0.1,0,0.2,0c0.1,0,0.3,0,0.4,0c0.1,0,0.1,0,0.2,0
			c0.1,0,0.2,0,0.3,0c0,0,0.1,0,0.1,0c0.1,0,0.3,0,0.4,0c0,0,0.1,0,0.1,0c0.2,0,0.3,0,0.5,0c11.4,0,20.6-9.2,20.6-20.6
			S59.4,27.4,48,27.4z"/>
		<path class="st4" d="M45.3,46.2l8.6-4.9c0,0,9.4,2,11.6-2l0.7-1.3l0.6,1.3C68,42,68.7,45,68.7,48c0,6.8-3.4,13.2-9.1,17.1L59,65.5
			L45.3,46.2z"/>
		<path class="st5" d="M68.6,48c0-3.6-0.9-6.9-2.5-9.9l-0.6,1.2c-0.8,1.4-1.8,2.8-2.8,4.1c0.3,1.5,0.5,3,0.5,4.6
			c0,5.8-2.4,11-6.2,14.7l1.9,2.8C64.8,61.9,68.6,55.4,68.6,48z"/>
		<path class="st6" d="M48,68.7c-7.1,0-13.6-3.6-17.4-9.5l-0.4-0.6l11.5-9.7l13.2,18.6l-0.8,0.3C52.1,68.4,50.1,68.7,48,68.7z"/>
		<path class="st7" d="M55,67.5l-1.4-2c-2.5,1.6-5.3,2.7-8.3,3.1c0.9,0.1,1.8,0.1,2.7,0.1C50.4,68.7,52.8,68.3,55,67.5z"/>
		<path class="st8" d="M41.7,48.9l3.6-2.7l13.8,19.3l-0.7,0.4c-0.9,0.6-1.9,1-3,1.4l-0.5,0.2L41.7,48.9z"/>
		<path class="st9" d="M54.9,67.5c1.5-0.5,2.9-1.2,4.2-2l-2-2.8c-1.1,1.1-2.3,2-3.6,2.8L54.9,67.5z"/>
		<path class="st10" d="M29.8,58c-0.6-1-1-2.1-1.4-3.2l-0.2-0.7l24.2-16.9l3.6,2.7L30.2,58.6L29.8,58z"/>
		<path class="st11" d="M58.2,47.5c-1.3-1.3-7.6-8.1-7.6-12.1c0-4.5,3.6-8.1,8.1-8.1s8.1,3.6,8.1,8.1c0,4-6.3,10.8-7.6,12.1l0,0
			C59,47.8,58.5,47.8,58.2,47.5L58.2,47.5z"/>
		<path class="st12" d="M58.7,38.2c-2,0-3.6-1.6-3.6-3.6s1.6-3.6,3.6-3.6c2,0,3.6,1.6,3.6,3.6S60.8,38.2,58.7,38.2z"/>
		<path class="st8" d="M39,42.4c2.4,0,4.3-1.9,4.3-4.3c0-0.4-0.3-0.7-0.7-0.7h-2.7c-0.4,0-0.7,0.3-0.7,0.7c0,0.4,0.3,0.7,0.7,0.7
			h1.9c-0.3,1.3-1.5,2.2-2.8,2.2c-1.6,0-2.9-1.3-2.9-2.9s1.3-2.9,2.9-2.9c0.7,0,1.4,0.3,1.9,0.7c0.3,0.2,0.7,0.2,1-0.1
			c0.2-0.3,0.2-0.7-0.1-1C41,34.3,40,33.9,39,33.9c-2.4,0-4.3,1.9-4.3,4.3C34.7,40.5,36.7,42.4,39,42.4z"/>
	</g>
</g>
</svg>
